# xmcd
#
# Track frame offsets:
#	150
#	17773
#	34051
#	35413
#	40807
#	46248
#	65382
#
# Disc length: 893 seconds
#
# Revision: 1
# Processed by: cddbd v1.5.2PL0 Copyright (c) Steve Scherf et al.
# Submitted via: audiograbber 1.83.01
#
DISCID=51037b07
DTITLE=Cees Keeman - De Zeeschilder
DYEAR=1997
DGENRE=Pop
TTITLE0=Winkel - De ballade van Cees Keeman
TTITLE1=Ruud Jansen - Aan jou mijn wereld
TTITLE2=Cees Keeman - Brulzang (1)
TTITLE3=Cees Keeman - The wild rover - The merry plaughboy
TTITLE4=Cees Keeman - Zal ik zeer blij zijn
TTITLE5=Cees Keeman - Interview-fragment uit de Kunstwacht VPRO
TTITLE6=Cees Keeman - Brulzang (2)
EXTD=
EXTT0=
EXTT1=
EXTT2=
EXTT3=
EXTT4=
EXTT5=
EXTT6=
PLAYORDER=
